<mxfile host="Electron" agent="Mozilla/5.0 (Windows NT 10.0; Win64; x64) AppleWebKit/537.36 (KHTML, like Gecko) draw.io/24.7.17 Chrome/128.0.6613.36 Electron/32.0.1 Safari/537.36" version="24.7.17">
  <diagram name="Page-1" id="abd_wN4XV_50h6rXcFNo">
    <mxGraphModel dx="441" dy="1361" grid="0" gridSize="10" guides="1" tooltips="1" connect="1" arrows="1" fold="1" page="1" pageScale="1" pageWidth="850" pageHeight="1100" math="0" shadow="0">
      <root>
        <mxCell id="0" />
        <mxCell id="1" parent="0" />
        <mxCell id="Yod3M6wZQcCwr-m0ua7_-10" value="Driving Infrastructure" style="swimlane;startSize=80;fontSize=50;perimeterSpacing=1;rounded=1;shadow=0;" parent="1" vertex="1">
          <mxGeometry x="260" y="-400" width="530" height="1380" as="geometry" />
        </mxCell>
        <mxCell id="wsK6GBBtHj5w1rYAa0iw-2" value="&lt;font style=&quot;font-size: 20px;&quot;&gt;CLI&lt;/font&gt;" style="shape=folder;fontStyle=1;tabWidth=111;tabHeight=50;tabPosition=left;html=1;boundedLbl=1;labelInHeader=1;container=1;collapsible=0;whiteSpace=wrap;" parent="Yod3M6wZQcCwr-m0ua7_-10" vertex="1">
          <mxGeometry x="44" y="175" width="414" height="227" as="geometry" />
        </mxCell>
        <mxCell id="wsK6GBBtHj5w1rYAa0iw-3" value="T" style="html=1;strokeColor=none;resizeWidth=1;resizeHeight=1;fillColor=none;part=1;connectable=0;allowArrows=0;deletable=0;whiteSpace=wrap;" parent="Yod3M6wZQcCwr-m0ua7_-10" vertex="1">
          <mxGeometry width="228" height="151.9" relative="1" as="geometry">
            <mxPoint x="304" y="40" as="offset" />
          </mxGeometry>
        </mxCell>
        <mxCell id="Yod3M6wZQcCwr-m0ua7_-11" value="Driven Infrastructure" style="swimlane;startSize=80;fontSize=50;perimeterSpacing=1;rounded=1;shadow=0;" parent="1" vertex="1">
          <mxGeometry x="1811" y="-368" width="530" height="1380" as="geometry" />
        </mxCell>
        <mxCell id="Yod3M6wZQcCwr-m0ua7_-12" value="Core" style="swimlane;startSize=80;fontSize=50;perimeterSpacing=1;rounded=1;shadow=0;" parent="1" vertex="1">
          <mxGeometry x="1061" y="-98" width="530" height="840" as="geometry" />
        </mxCell>
        <mxCell id="ZyrEgpnkZ3WDE4MTVZ8D-3" value="Service" style="swimlane;startSize=42;fontSize=15;" vertex="1" parent="Yod3M6wZQcCwr-m0ua7_-12">
          <mxGeometry x="28" y="109" width="480" height="294" as="geometry">
            <mxRectangle x="28" y="109" width="87" height="42" as="alternateBounds" />
          </mxGeometry>
        </mxCell>
        <mxCell id="ZyrEgpnkZ3WDE4MTVZ8D-6" value="Import Securities Service" style="swimlane;startSize=33;" vertex="1" parent="ZyrEgpnkZ3WDE4MTVZ8D-3">
          <mxGeometry x="20" y="61" width="240" height="176" as="geometry" />
        </mxCell>
        <mxCell id="ZyrEgpnkZ3WDE4MTVZ8D-7" value="Classifier1" style="shape=process2;fixedSize=1;size=5;fontStyle=1;html=1;whiteSpace=wrap;" vertex="1" parent="ZyrEgpnkZ3WDE4MTVZ8D-6">
          <mxGeometry x="9" y="48" width="90" height="36" as="geometry" />
        </mxCell>
      </root>
    </mxGraphModel>
  </diagram>
</mxfile>
